<svg width="174" height="38" viewBox="0 0 174 38" fill="none" xmlns="http://www.w3.org/2000/svg">
<path d="M47.556 19.154C46.544 19.154 45.6347 18.978 44.828 18.626C44.036 18.2593 43.4127 17.7607 42.958 17.13C42.5033 16.4847 42.2687 15.744 42.254 14.908H44.388C44.4613 15.6267 44.7547 16.2353 45.268 16.734C45.796 17.218 46.5587 17.46 47.556 17.46C48.5093 17.46 49.2573 17.2253 49.8 16.756C50.3573 16.272 50.636 15.656 50.636 14.908C50.636 14.3213 50.4747 13.8447 50.152 13.478C49.8293 13.1113 49.426 12.8327 48.942 12.642C48.458 12.4513 47.8053 12.246 46.984 12.026C45.972 11.762 45.158 11.498 44.542 11.234C43.9407 10.97 43.42 10.5593 42.98 10.002C42.5547 9.43 42.342 8.66733 42.342 7.714C42.342 6.878 42.5547 6.13733 42.98 5.492C43.4053 4.84667 43.9993 4.348 44.762 3.996C45.5393 3.644 46.4267 3.468 47.424 3.468C48.8613 3.468 50.0347 3.82733 50.944 4.546C51.868 5.26467 52.3887 6.218 52.506 7.406H50.306C50.2327 6.81933 49.9247 6.306 49.382 5.866C48.8393 5.41133 48.1207 5.184 47.226 5.184C46.39 5.184 45.708 5.404 45.18 5.844C44.652 6.26933 44.388 6.87067 44.388 7.648C44.388 8.20533 44.542 8.66 44.85 9.012C45.1727 9.364 45.5613 9.63533 46.016 9.826C46.4853 10.002 47.138 10.2073 47.974 10.442C48.986 10.7207 49.8 10.9993 50.416 11.278C51.032 11.542 51.56 11.96 52 12.532C52.44 13.0893 52.66 13.852 52.66 14.82C52.66 15.568 52.462 16.272 52.066 16.932C51.67 17.592 51.0833 18.1273 50.306 18.538C49.5287 18.9487 48.612 19.154 47.556 19.154ZM66.2981 6.944V19H64.2961V17.218C63.9148 17.834 63.3794 18.318 62.6901 18.67C62.0154 19.0073 61.2674 19.176 60.4461 19.176C59.5074 19.176 58.6641 18.9853 57.9161 18.604C57.1681 18.208 56.5741 17.6213 56.1341 16.844C55.7088 16.0667 55.4961 15.1207 55.4961 14.006V6.944H57.4761V13.742C57.4761 14.93 57.7768 15.8467 58.3781 16.492C58.9794 17.1227 59.8008 17.438 60.8421 17.438C61.9128 17.438 62.7561 17.108 63.3721 16.448C63.9881 15.788 64.2961 14.8273 64.2961 13.566V6.944H66.2981ZM71.6804 9.166C72.0764 8.47667 72.663 7.90467 73.4404 7.45C74.2324 6.98067 75.149 6.746 76.1904 6.746C77.261 6.746 78.229 7.00267 79.0944 7.516C79.9744 8.02933 80.6637 8.75533 81.1624 9.694C81.661 10.618 81.9104 11.696 81.9104 12.928C81.9104 14.1453 81.661 15.2307 81.1624 16.184C80.6637 17.1373 79.9744 17.878 79.0944 18.406C78.229 18.934 77.261 19.198 76.1904 19.198C75.1637 19.198 74.2544 18.9707 73.4624 18.516C72.685 18.0467 72.091 17.4673 71.6804 16.778V24.72H69.6784V6.944H71.6804V9.166ZM79.8644 12.928C79.8644 12.0187 79.681 11.2267 79.3144 10.552C78.9477 9.87733 78.449 9.364 77.8184 9.012C77.2024 8.66 76.5204 8.484 75.7724 8.484C75.039 8.484 74.357 8.66733 73.7264 9.034C73.1104 9.386 72.6117 9.90667 72.2304 10.596C71.8637 11.2707 71.6804 12.0553 71.6804 12.95C71.6804 13.8593 71.8637 14.6587 72.2304 15.348C72.6117 16.0227 73.1104 16.5433 73.7264 16.91C74.357 17.262 75.039 17.438 75.7724 17.438C76.5204 17.438 77.2024 17.262 77.8184 16.91C78.449 16.5433 78.9477 16.0227 79.3144 15.348C79.681 14.6587 79.8644 13.852 79.8644 12.928ZM89.8036 19.198C88.6742 19.198 87.6476 18.9413 86.7236 18.428C85.8142 17.9147 85.0956 17.1887 84.5676 16.25C84.0542 15.2967 83.7976 14.1967 83.7976 12.95C83.7976 11.718 84.0616 10.6327 84.5896 9.694C85.1322 8.74067 85.8656 8.01467 86.7896 7.516C87.7136 7.00267 88.7476 6.746 89.8916 6.746C91.0356 6.746 92.0696 7.00267 92.9936 7.516C93.9176 8.01467 94.6436 8.73333 95.1716 9.672C95.7142 10.6107 95.9856 11.7033 95.9856 12.95C95.9856 14.1967 95.7069 15.2967 95.1496 16.25C94.6069 17.1887 93.8662 17.9147 92.9276 18.428C91.9889 18.9413 90.9476 19.198 89.8036 19.198ZM89.8036 17.438C90.5222 17.438 91.1969 17.2693 91.8276 16.932C92.4582 16.5947 92.9642 16.0887 93.3456 15.414C93.7416 14.7393 93.9396 13.918 93.9396 12.95C93.9396 11.982 93.7489 11.1607 93.3676 10.486C92.9862 9.81133 92.4876 9.31267 91.8716 8.99C91.2556 8.65267 90.5882 8.484 89.8696 8.484C89.1362 8.484 88.4616 8.65267 87.8456 8.99C87.2442 9.31267 86.7602 9.81133 86.3936 10.486C86.0269 11.1607 85.8436 11.982 85.8436 12.95C85.8436 13.9327 86.0196 14.7613 86.3716 15.436C86.7382 16.1107 87.2222 16.6167 87.8236 16.954C88.4249 17.2767 89.0849 17.438 89.8036 17.438ZM100.62 8.902C100.972 8.21267 101.47 7.67733 102.116 7.296C102.776 6.91467 103.575 6.724 104.514 6.724V8.792H103.986C101.742 8.792 100.62 10.0093 100.62 12.444V19H98.6178V6.944H100.62V8.902ZM109.267 8.594V15.7C109.267 16.2867 109.392 16.7047 109.641 16.954C109.89 17.1887 110.323 17.306 110.939 17.306H112.413V19H110.609C109.494 19 108.658 18.7433 108.101 18.23C107.544 17.7167 107.265 16.8733 107.265 15.7V8.594H105.703V6.944H107.265V3.908H109.267V6.944H112.413V8.594H109.267ZM125.839 12.51C125.839 12.8913 125.817 13.2947 125.773 13.72H116.137C116.21 14.908 116.613 15.8393 117.347 16.514C118.095 17.174 118.997 17.504 120.053 17.504C120.918 17.504 121.637 17.306 122.209 16.91C122.795 16.4993 123.206 15.9567 123.441 15.282H125.597C125.274 16.4407 124.629 17.3867 123.661 18.12C122.693 18.8387 121.49 19.198 120.053 19.198C118.909 19.198 117.882 18.9413 116.973 18.428C116.078 17.9147 115.374 17.1887 114.861 16.25C114.347 15.2967 114.091 14.1967 114.091 12.95C114.091 11.7033 114.34 10.6107 114.839 9.672C115.337 8.73333 116.034 8.01467 116.929 7.516C117.838 7.00267 118.879 6.746 120.053 6.746C121.197 6.746 122.209 6.99533 123.089 7.494C123.969 7.99267 124.643 8.682 125.113 9.562C125.597 10.4273 125.839 11.41 125.839 12.51ZM123.771 12.092C123.771 11.3293 123.602 10.6767 123.265 10.134C122.927 9.57667 122.465 9.15867 121.879 8.88C121.307 8.58667 120.669 8.44 119.965 8.44C118.953 8.44 118.087 8.76267 117.369 9.408C116.665 10.0533 116.261 10.948 116.159 12.092H123.771ZM139.12 3.666C140.792 3.666 142.237 3.98133 143.454 4.612C144.686 5.228 145.625 6.11533 146.27 7.274C146.93 8.43267 147.26 9.79667 147.26 11.366C147.26 12.9353 146.93 14.2993 146.27 15.458C145.625 16.602 144.686 17.482 143.454 18.098C142.237 18.6993 140.792 19 139.12 19H134.346V3.666H139.12ZM139.12 17.35C141.1 17.35 142.611 16.8293 143.652 15.788C144.694 14.732 145.214 13.258 145.214 11.366C145.214 9.45933 144.686 7.97067 143.63 6.9C142.589 5.82933 141.086 5.294 139.12 5.294H136.348V17.35H139.12ZM157.975 19L154.323 12.73H151.903V19H149.901V3.666H154.851C156.01 3.666 156.985 3.864 157.777 4.26C158.584 4.656 159.185 5.19133 159.581 5.866C159.977 6.54067 160.175 7.31067 160.175 8.176C160.175 9.232 159.867 10.1633 159.251 10.97C158.65 11.7767 157.74 12.312 156.523 12.576L160.373 19H157.975ZM151.903 11.124H154.851C155.936 11.124 156.75 10.86 157.293 10.332C157.836 9.78933 158.107 9.07067 158.107 8.176C158.107 7.26667 157.836 6.56267 157.293 6.064C156.765 5.56533 155.951 5.316 154.851 5.316H151.903V11.124ZM171.36 19L167.708 12.73H165.288V19H163.286V3.666H168.236C169.394 3.666 170.37 3.864 171.162 4.26C171.968 4.656 172.57 5.19133 172.966 5.866C173.362 6.54067 173.56 7.31067 173.56 8.176C173.56 9.232 173.252 10.1633 172.636 10.97C172.034 11.7767 171.125 12.312 169.908 12.576L173.758 19H171.36ZM165.288 11.124H168.236C169.321 11.124 170.135 10.86 170.678 10.332C171.22 9.78933 171.492 9.07067 171.492 8.176C171.492 7.26667 171.22 6.56267 170.678 6.064C170.15 5.56533 169.336 5.316 168.236 5.316H165.288V11.124Z" fill="white"/>
<path d="M31.0002 25.4073L24.3364 24.1965C24.0859 24.1464 23.826 24.219 23.6291 24.3822L20.1072 27.3177C19.4664 27.8506 18.5354 27.8506 17.8946 27.3177C17.8721 27.2996 17.8488 27.2814 17.8246 27.265L16.0291 26.0568C15.6327 25.7882 15.0964 25.8944 14.8304 26.2908C14.5635 26.6863 14.668 27.2235 15.0644 27.4895L16.8262 28.6753C17.2209 28.9948 17.6708 29.203 18.1381 29.3239V33.6818C18.1381 34.1594 18.5241 34.5454 19.0017 34.5454C19.4793 34.5454 19.8653 34.1594 19.8653 33.6818V29.323C20.3472 29.1986 20.8101 28.981 21.2143 28.645L24.427 25.9669L30.6927 27.1052C31.9234 27.3306 32.8181 28.4032 32.8181 29.6555V35.409C32.8181 35.8857 32.4312 36.2726 31.9545 36.2726H6.04542C5.56871 36.2726 5.18181 35.8857 5.18181 35.409V29.6555C5.18181 28.4032 6.07652 27.3315 7.30892 27.106L13.9727 25.8952C14.4425 25.8097 14.7534 25.3606 14.6679 24.8917C14.5833 24.4219 14.1324 24.1075 13.6644 24.1965L6.9998 25.4073C4.94609 25.7821 3.45459 27.5681 3.45459 29.6555V35.409C3.45459 36.8375 4.61708 37.9999 6.04549 37.9999H31.9546C33.3831 37.9999 34.5455 36.8374 34.5455 35.409V29.6555C34.5455 27.5681 33.0539 25.7821 31.0002 25.4073Z" fill="white"/>
<path d="M16.4091 12.0909C16.8861 12.0909 17.2727 11.7042 17.2727 11.2273C17.2727 10.7503 16.8861 10.3637 16.4091 10.3637C15.9321 10.3637 15.5455 10.7503 15.5455 11.2273C15.5455 11.7042 15.9321 12.0909 16.4091 12.0909Z" fill="white"/>
<path d="M21.5909 12.0909C22.0679 12.0909 22.4545 11.7042 22.4545 11.2273C22.4545 10.7503 22.0679 10.3637 21.5909 10.3637C21.1139 10.3637 20.7273 10.7503 20.7273 11.2273C20.7273 11.7042 21.1139 12.0909 21.5909 12.0909Z" fill="white"/>
<path d="M27.6364 7.77271V6.9091C27.6364 3.0996 24.5368 0 20.7273 0H17.2728C13.4633 0 10.3637 3.0996 10.3637 6.9091V7.77271C8.9352 7.77271 7.77278 8.9352 7.77278 10.3636V12.0909C7.77278 13.5194 8.93527 14.6818 10.3637 14.6818H10.919C10.982 15.1024 11.0261 15.3779 11.0313 15.4107C11.1945 16.8573 11.7732 18.2227 12.7059 19.3601L12.8907 19.5855C14.3857 21.4086 16.6121 22.4545 19.0001 22.4545C20.3318 22.4545 21.6497 22.1194 22.8113 21.4855C23.2293 21.2566 23.3839 20.7324 23.155 20.3135C22.9261 19.8964 22.4028 19.7409 21.983 19.9698C21.0745 20.4647 20.0433 20.7272 19 20.7272C17.132 20.7272 15.3917 19.9119 14.2267 18.4895L14.0419 18.2641C13.3216 17.3849 12.8734 16.3313 12.7421 15.1766C12.7352 15.136 12.0909 11.0856 12.0909 9.49993V8.63632V6.9091C12.0909 4.0513 14.4149 1.72729 17.2727 1.72729H20.7272C23.5694 1.72729 25.8848 4.028 25.909 6.8642C24.478 6.71568 23.16 6.1983 22.1323 5.3718C22.1358 5.3796 22.1366 5.38301 22.1401 5.3908C21.8646 5.15932 21.4691 5.10929 21.1452 5.3053C19.3342 6.3987 17.0567 7.1682 14.5582 7.5335C14.0867 7.60171 13.7593 8.04049 13.8284 8.51289C13.8906 8.9421 14.2602 9.25129 14.6817 9.25129C14.7232 9.25129 14.7655 9.2487 14.8078 9.24179C17.3089 8.8773 19.6027 8.11478 21.5165 7.0585C22.7679 7.92471 24.2862 8.4576 25.909 8.5975V9.5C25.909 11.0856 25.2647 15.1361 25.2518 15.2164C25.206 15.624 25.1015 16.0204 24.9703 16.4091H21.5114C21.3326 15.9073 20.8576 15.5455 20.2954 15.5455H17.7045C16.9903 15.5455 16.409 16.1267 16.409 16.841C16.409 17.5552 16.9902 18.1365 17.7045 18.1365H19H20.2955H26.7728C28.2013 18.1365 29.3637 16.974 29.3637 15.5456V14.0083C29.8897 13.5342 30.2273 12.8536 30.2273 12.091V10.3637C30.2273 8.93519 29.0648 7.77271 27.6364 7.77271ZM10.3636 12.9545C9.8869 12.9545 9.5 12.5676 9.5 12.0909V10.3636C9.5 9.8869 9.8869 9.5 10.3636 9.5V12.9545ZM27.6364 15.5455C27.6364 16.0196 27.2521 16.4048 26.7779 16.4083C26.8591 16.0879 26.9282 15.7675 26.9636 15.4505C26.9705 15.4073 27.0171 15.118 27.0819 14.6819H27.6364V15.5455ZM28.5 12.0909C28.5 12.5676 28.1131 12.9545 27.6364 12.9545V9.5C28.1131 9.5 28.5 9.8869 28.5 10.3636V12.0909Z" fill="white"/>
<path d="M117.632 27.378V31.9C117.632 32.2733 117.711 32.5393 117.87 32.698C118.029 32.8473 118.304 32.922 118.696 32.922H119.634V34H118.486C117.777 34 117.245 33.8367 116.89 33.51C116.535 33.1833 116.358 32.6467 116.358 31.9V27.378H115.364V26.328H116.358V24.396H117.632V26.328H119.634V27.378H117.632ZM124.524 34.126C123.805 34.126 123.152 33.9627 122.564 33.636C121.985 33.3093 121.528 32.8473 121.192 32.25C120.865 31.6433 120.702 30.9433 120.702 30.15C120.702 29.366 120.87 28.6753 121.206 28.078C121.551 27.4713 122.018 27.0093 122.606 26.692C123.194 26.3653 123.852 26.202 124.58 26.202C125.308 26.202 125.966 26.3653 126.554 26.692C127.142 27.0093 127.604 27.4667 127.94 28.064C128.285 28.6613 128.458 29.3567 128.458 30.15C128.458 30.9433 128.28 31.6433 127.926 32.25C127.58 32.8473 127.109 33.3093 126.512 33.636C125.914 33.9627 125.252 34.126 124.524 34.126ZM124.524 33.006C124.981 33.006 125.41 32.8987 125.812 32.684C126.213 32.4693 126.535 32.1473 126.778 31.718C127.03 31.2887 127.156 30.766 127.156 30.15C127.156 29.534 127.034 29.0113 126.792 28.582C126.549 28.1527 126.232 27.8353 125.84 27.63C125.448 27.4153 125.023 27.308 124.566 27.308C124.099 27.308 123.67 27.4153 123.278 27.63C122.895 27.8353 122.587 28.1527 122.354 28.582C122.12 29.0113 122.004 29.534 122.004 30.15C122.004 30.7753 122.116 31.3027 122.34 31.732C122.573 32.1613 122.881 32.4833 123.264 32.698C123.646 32.9033 124.066 33.006 124.524 33.006ZM135.419 27.378V31.9C135.419 32.2733 135.498 32.5393 135.657 32.698C135.816 32.8473 136.091 32.922 136.483 32.922H137.421V34H136.273C135.564 34 135.032 33.8367 134.677 33.51C134.322 33.1833 134.145 32.6467 134.145 31.9V27.378H133.151V26.328H134.145V24.396H135.419V26.328H137.421V27.378H135.419ZM138.489 30.136C138.489 29.352 138.647 28.666 138.965 28.078C139.282 27.4807 139.716 27.0187 140.267 26.692C140.827 26.3653 141.447 26.202 142.129 26.202C142.801 26.202 143.384 26.3467 143.879 26.636C144.373 26.9253 144.742 27.2893 144.985 27.728V26.328H146.273V34H144.985V32.572C144.733 33.02 144.355 33.3933 143.851 33.692C143.356 33.9813 142.777 34.126 142.115 34.126C141.433 34.126 140.817 33.958 140.267 33.622C139.716 33.286 139.282 32.8147 138.965 32.208C138.647 31.6013 138.489 30.9107 138.489 30.136ZM144.985 30.15C144.985 29.5713 144.868 29.0673 144.635 28.638C144.401 28.2087 144.084 27.882 143.683 27.658C143.291 27.4247 142.857 27.308 142.381 27.308C141.905 27.308 141.471 27.42 141.079 27.644C140.687 27.868 140.374 28.1947 140.141 28.624C139.907 29.0533 139.791 29.5573 139.791 30.136C139.791 30.724 139.907 31.2373 140.141 31.676C140.374 32.1053 140.687 32.4367 141.079 32.67C141.471 32.894 141.905 33.006 142.381 33.006C142.857 33.006 143.291 32.894 143.683 32.67C144.084 32.4367 144.401 32.1053 144.635 31.676C144.868 31.2373 144.985 30.7287 144.985 30.15ZM149.98 27.378V31.9C149.98 32.2733 150.059 32.5393 150.218 32.698C150.376 32.8473 150.652 32.922 151.044 32.922H151.982V34H150.834C150.124 34 149.592 33.8367 149.238 33.51C148.883 33.1833 148.706 32.6467 148.706 31.9V27.378H147.712V26.328H148.706V24.396H149.98V26.328H151.982V27.378H149.98ZM153.049 30.136C153.049 29.352 153.208 28.666 153.525 28.078C153.843 27.4807 154.277 27.0187 154.827 26.692C155.387 26.3653 156.008 26.202 156.689 26.202C157.361 26.202 157.945 26.3467 158.439 26.636C158.934 26.9253 159.303 27.2893 159.545 27.728V26.328H160.833V34H159.545V32.572C159.293 33.02 158.915 33.3933 158.411 33.692C157.917 33.9813 157.338 34.126 156.675 34.126C155.994 34.126 155.378 33.958 154.827 33.622C154.277 33.286 153.843 32.8147 153.525 32.208C153.208 31.6013 153.049 30.9107 153.049 30.136ZM159.545 30.15C159.545 29.5713 159.429 29.0673 159.195 28.638C158.962 28.2087 158.645 27.882 158.243 27.658C157.851 27.4247 157.417 27.308 156.941 27.308C156.465 27.308 156.031 27.42 155.639 27.644C155.247 27.868 154.935 28.1947 154.701 28.624C154.468 29.0533 154.351 29.5573 154.351 30.136C154.351 30.724 154.468 31.2373 154.701 31.676C154.935 32.1053 155.247 32.4367 155.639 32.67C156.031 32.894 156.465 33.006 156.941 33.006C157.417 33.006 157.851 32.894 158.243 32.67C158.645 32.4367 158.962 32.1053 159.195 31.676C159.429 31.2373 159.545 30.7287 159.545 30.15ZM169.79 26.328V34H168.516V32.866C168.274 33.258 167.933 33.566 167.494 33.79C167.065 34.0047 166.589 34.112 166.066 34.112C165.469 34.112 164.932 33.9907 164.456 33.748C163.98 33.496 163.602 33.1227 163.322 32.628C163.052 32.1333 162.916 31.5313 162.916 30.822V26.328H164.176V30.654C164.176 31.41 164.368 31.9933 164.75 32.404C165.133 32.8053 165.656 33.006 166.318 33.006C167 33.006 167.536 32.796 167.928 32.376C168.32 31.956 168.516 31.3447 168.516 30.542V26.328H169.79ZM172.599 25.082C172.357 25.082 172.151 24.998 171.983 24.83C171.815 24.662 171.731 24.4567 171.731 24.214C171.731 23.9713 171.815 23.766 171.983 23.598C172.151 23.43 172.357 23.346 172.599 23.346C172.833 23.346 173.029 23.43 173.187 23.598C173.355 23.766 173.439 23.9713 173.439 24.214C173.439 24.4567 173.355 24.662 173.187 24.83C173.029 24.998 172.833 25.082 172.599 25.082ZM173.215 26.328V34H171.941V26.328H173.215Z" fill="white"/>
</svg>
